# xmcd
#
# Track frame offsets:
#	150
#	17387
#	34552
#	52290
#	63715
#	79375
#	94380
#	108490
#	125302
#	144322
#	161745
#	176692
#	192282
#	205730
#	218937
#	235890
#
# Disc length: 3372 seconds
#
# Revision: 0
# Processed by: cddbd v1.5.2PL0 Copyright (c) Steve Scherf et al.
# Submitted via: dBpowerAMP V4.0
#
DISCID=e70d2a10
DTITLE=O.T.H. Over the Hillbillies - Tomorrows dreams
DYEAR=1994
DGENRE=Country
TTITLE0=OTH - Tomorrows dreams
TTITLE1=OTH - One step over the line
TTITLE2=OTH - Lady (you are my life)
TTITLE3=OTH - Friends forever
TTITLE4=OTH - Amoré Mio
TTITLE5=OTH - 18 Wheels and a dozen roses
TTITLE6=OTH - I hear our melody
TTITLE7=OTH - Carry on
TTITLE8=OTH - Only love (can show the way)
TTITLE9=OTH - Still we're young
TTITLE10=OTH - Everybody's sombody's darlin'
TTITLE11=OTH - Sweet Summer love
TTITLE12=OTH - Distant drums
TTITLE13=OTH - Swimmin' upstream
TTITLE14=OTH - Glory glory hallelujah
TTITLE15=OTH - What did you do with your old 45's
EXTD=
EXTT0=
EXTT1=
EXTT2=
EXTT3=
EXTT4=
EXTT5=
EXTT6=
EXTT7=
EXTT8=
EXTT9=
EXTT10=
EXTT11=
EXTT12=
EXTT13=
EXTT14=
EXTT15=
PLAYORDER=
